<?xml version="1.0" encoding="UTF-8" standalone="no"?>
<!-- Generator: Adobe Illustrator 18.1.1, SVG Export Plug-In . SVG Version: 6.00 Build 0)  -->

<svg
   version="1.1"
   id="Capa_1"
   x="0px"
   y="0px"
   viewBox="0 0 48.000002 48"
   xml:space="preserve"
   sodipodi:docname="FormFillerR.svg"
   width="48"
   height="48"
   inkscape:version="1.1.1 (3bf5ae0d25, 2021-09-20)"
   xmlns:inkscape="http://www.inkscape.org/namespaces/inkscape"
   xmlns:sodipodi="http://sodipodi.sourceforge.net/DTD/sodipodi-0.dtd"
   xmlns="http://www.w3.org/2000/svg"
   xmlns:svg="http://www.w3.org/2000/svg"><defs
   id="defs56" /><sodipodi:namedview
   id="namedview54"
   pagecolor="#ffffff"
   bordercolor="#666666"
   borderopacity="1.0"
   inkscape:pageshadow="2"
   inkscape:pageopacity="0.0"
   inkscape:pagecheckerboard="0"
   showgrid="false"
   width="48px"
   fit-margin-top="0"
   fit-margin-left="0"
   fit-margin-right="0"
   fit-margin-bottom="0"
   inkscape:zoom="31.507271"
   inkscape:cx="9.5057423"
   inkscape:cy="10.203994"
   inkscape:window-width="1920"
   inkscape:window-height="1027"
   inkscape:window-x="-8"
   inkscape:window-y="-8"
   inkscape:window-maximized="1"
   inkscape:current-layer="Capa_1"
   viewbox-width="48"
   viewbox-height="48"
   scale-x="4.5592"
   viewbox-x="0"
   showborder="true"
   viewbox-y="-5.3"
   lock-margins="false" />
<g
   id="g21"
   transform="matrix(2.4817745,0,0,1.84658,-8.254382,0)">
	<g
   id="g19">
		<path
   style="fill:#010002"
   d="M 21.815,0 H 4.18 C 3.707,0 3.326,0.382 3.326,0.853 V 25.14 c 0,0.472 0.381,0.854 0.853,0.854 h 13.083 c 0.21,0 0.413,-0.077 0.57,-0.218 l 4.55,-4.072 c 0.181,-0.162 0.285,-0.394 0.285,-0.636 V 0.853 C 22.667,0.382 22.285,0 21.815,0 Z m -0.853,20.59 h -3.97 v 3.648 l -0.053,0.047 H 5.033 V 1.707 H 20.961 V 20.59 Z"
   id="path9" />
		<path
   style="fill:#010002"
   d="m 14.562,15.173 h -4.337 c -0.247,0 -0.446,0.2 -0.446,0.446 v 4.337 c 0,0.247 0.199,0.446 0.446,0.446 h 4.337 c 0.246,0 0.446,-0.2 0.446,-0.446 V 15.62 c 0.001,-0.246 -0.199,-0.447 -0.446,-0.447 z m -0.444,4.338 h -3.446 v -3.446 h 3.446 z"
   id="path11" />
		<path
   style="fill:#010002"
   d="M 14.953,8.569 V 8.537 c 0,-0.218 -0.177,-0.394 -0.394,-0.394 h -4.33 c -0.217,0 -0.394,0.176 -0.394,0.394 v 4.329 c 0,0.219 0.177,0.395 0.394,0.395 h 4.331 c 0.217,0 0.394,-0.176 0.394,-0.395 v -1.543 l -0.696,0.696 c -0.026,0.026 -0.062,0.039 -0.092,0.062 v 0.393 H 10.623 V 8.93 h 3.543 v 0.426 z"
   id="path13" />
		<path
   style="fill:#010002"
   d="m 15.764,8.313 -2.196,2.195 -0.84,-0.841 c -0.227,-0.227 -0.593,-0.227 -0.82,0 -0.227,0.227 -0.227,0.594 0,0.819 l 1.251,1.252 c 0.113,0.113 0.262,0.17 0.41,0.17 0.149,0 0.298,-0.057 0.41,-0.17 l 2.605,-2.606 c 0.228,-0.227 0.228,-0.593 0,-0.82 -0.226,-0.226 -0.593,-0.226 -0.82,0.001 z"
   id="path15" />
		<rect
   x="7.3049998"
   y="4.1589999"
   style="fill:#010002"
   width="11.385"
   height="1.189"
   id="rect17" />
	</g>
</g>
<g
   id="g23"
   transform="translate(-3.4846935,-0.0634774)">
</g>
<g
   id="g25"
   transform="translate(-3.4846935,-0.0634774)">
</g>
<g
   id="g27"
   transform="translate(-3.4846935,-0.0634774)">
</g>
<g
   id="g29"
   transform="translate(-3.4846935,-0.0634774)">
</g>
<g
   id="g31"
   transform="translate(-3.4846935,-0.0634774)">
</g>
<g
   id="g33"
   transform="translate(-3.4846935,-0.0634774)">
</g>
<g
   id="g35"
   transform="translate(-3.4846935,-0.0634774)">
</g>
<g
   id="g37"
   transform="translate(-3.4846935,-0.0634774)">
</g>
<g
   id="g39"
   transform="translate(-3.4846935,-0.0634774)">
</g>
<g
   id="g41"
   transform="translate(-3.4846935,-0.0634774)">
</g>
<g
   id="g43"
   transform="translate(-3.4846935,-0.0634774)">
</g>
<g
   id="g45"
   transform="translate(-3.4846935,-0.0634774)">
</g>
<g
   id="g47"
   transform="translate(-3.4846935,-0.0634774)">
</g>
<g
   id="g49"
   transform="translate(-3.4846935,-0.0634774)">
</g>
<g
   id="g51"
   transform="translate(-3.4846935,-0.0634774)">
</g>
</svg>
